<?xml version="1.0" encoding="UTF-8" standalone="no"?>
<!-- Created with Inkscape (http://www.inkscape.org/) -->

<svg
   xmlns:dc="http://purl.org/dc/elements/1.1/"
   xmlns:cc="http://creativecommons.org/ns#"
   xmlns:rdf="http://www.w3.org/1999/02/22-rdf-syntax-ns#"
   xmlns:svg="http://www.w3.org/2000/svg"
   xmlns="http://www.w3.org/2000/svg"
   xmlns:sodipodi="http://sodipodi.sourceforge.net/DTD/sodipodi-0.dtd"
   xmlns:inkscape="http://www.inkscape.org/namespaces/inkscape"
   viewBox="0 0 299.9881 299.29831"
   width="265"
   height="264.40659"
   id="svg3825"
   version="1.1"
   inkscape:version="0.92.5 (2060ec1f9f, 2020-04-08)"
   sodipodi:docname="Alembic_logo.svg">
  <defs
     id="defs3827" />
  <sodipodi:namedview
     id="base"
     pagecolor="#ffffff"
     bordercolor="#666666"
     borderopacity="1.0"
     inkscape:pageopacity="0.0"
     inkscape:pageshadow="2"
     inkscape:zoom="1.3044496"
     inkscape:cx="199.78469"
     inkscape:cy="96.244837"
     inkscape:document-units="px"
     inkscape:current-layer="g3911"
     showgrid="true"
     showborder="false"
     inkscape:showpageshadow="false"
     inkscape:window-width="1920"
     inkscape:window-height="1027"
     inkscape:window-x="-8"
     inkscape:window-y="-8"
     inkscape:window-maximized="1"
     inkscape:snap-global="false"
     fit-margin-top="0"
     fit-margin-left="0"
     fit-margin-right="0"
     fit-margin-bottom="0">
    <inkscape:grid
       type="xygrid"
       id="grid3833"
       empspacing="5"
       visible="true"
       enabled="true"
       snapvisiblegridlinesonly="true"
       spacingx="10"
       spacingy="10"
       originx="-8.9125436e-06"
       originy="-127.44248" />
  </sodipodi:namedview>
  <metadata
     id="metadata3830">
    <rdf:RDF>
      <cc:Work
         rdf:about="">
        <dc:format>image/svg+xml</dc:format>
        <dc:type
           rdf:resource="http://purl.org/dc/dcmitype/StillImage" />
        <dc:title />
      </cc:Work>
    </rdf:RDF>
  </metadata>
  <g
     inkscape:label="Layer 1"
     inkscape:groupmode="layer"
     id="layer1"
     transform="translate(112.15155,-390.69417)">
    <g
       id="g3911"
       transform="translate(-321.97487,1.5332136)">
      <path
         style="fill:#ffffff;fill-opacity:1"
         d="m 344.38359,687.90926 c -59.83237,-6.1912 -111.39346,-49.17991 -128.17921,-106.86854 -3.12626,-10.74425 -6.36886,-31.35991 -6.381,-40.56887 -0.0166,-12.61452 3.68915,-29.47382 9.10301,-41.41383 2.95248,-6.51155 7.70118,-13.60335 8.54431,-12.76022 0.25152,0.25152 -0.6396,3.09357 -1.98027,6.31568 -5.82593,14.00181 -8.41583,33.01403 -6.71043,49.2608 1.16743,11.1217 4.92497,28.51369 7.48317,34.63634 1.59576,3.81917 3.54825,3.86524 3.54825,0.0837 0,-5.04496 3.13653,-12.49601 7.20666,-17.11992 7.18075,-8.15776 15.90024,-10.52932 23.83318,-6.48224 4.90353,2.5016 5.0625,3.97968 0.42804,3.97968 -11.10538,0 -19.49834,11.46162 -19.4531,26.5656 0.0609,20.32785 16.78656,46.83052 37.43854,59.32329 3.08122,1.8639 5.84424,3.14688 6.14004,2.85108 0.29581,-0.2958 -0.83873,-2.97694 -2.52118,-5.95808 -4.39582,-7.78896 -6.04902,-14.15767 -6.06136,-23.35039 -0.0128,-9.57449 1.7859,-16.27199 6.13258,-22.83428 11.29318,-17.0496 37.2307,-22.8016 52.60354,-11.66558 7.79619,5.64753 12.33581,16.7113 10.25217,24.98616 -1.11826,4.44104 -4.43469,10.0822 -5.9273,10.0822 -0.4356,0 -1.04152,-2.41758 -1.34648,-5.3724 -1.42619,-13.81837 -11.91506,-22.57988 -23.53024,-19.65514 -6.39814,1.61107 -9.33919,3.33776 -13.46644,7.90613 -9.71954,10.75838 -6.28847,28.86358 8.1735,43.1301 17.38197,17.14708 47.45509,22.71212 83.04855,15.36818 7.64467,-1.5773 25.5493,-9.90046 25.5493,-11.87686 0,-0.55 -3.03317,-1.2999 -6.74038,-1.66644 -13.73507,-1.35802 -24.56244,-6.39794 -33.7802,-15.72399 -20.96022,-21.20646 -21.36994,-50.74727 -0.98625,-71.10957 11.32095,-11.30906 24.15403,-16.52446 38.92288,-15.81836 10.57809,0.50575 16.39261,3.03482 23.68016,10.29987 14.27072,14.22666 11.99475,37.20799 -4.21472,42.5576 -4.50759,1.48764 -12.96571,0.72993 -17.51897,-1.56941 -3.94746,-1.99341 -8.97581,-6.47738 -8.36751,-7.46162 0.23313,-0.37723 3.13043,-0.12811 6.43843,0.55358 11.40706,2.35072 18.06656,-1.4273 18.06656,-10.24939 0,-8.82593 -6.9147,-15.04541 -17.81543,-16.02423 -7.11368,-0.63877 -12.54391,0.79516 -17.88444,4.72263 -16.51308,12.14385 -16.79492,38.18703 -0.52985,48.96056 14.09292,9.33476 32.54063,10.4438 47.56503,2.85951 27.94871,-14.10847 33.409,-58.41275 9.85248,-79.94209 -11.20986,-10.24518 -23.6069,-14.39021 -40.68779,-13.60424 -17.66163,0.81269 -25.72067,4.02373 -51.90182,20.67972 -16.80145,10.68878 -27.02254,13.72203 -43.02241,12.76746 -6.95507,-0.41494 -12.03311,-1.47013 -20.1844,-4.19419 -34.8996,-11.663 -52.87907,-33.42038 -55.0469,-66.61351 -1.54462,-23.65088 5.70332,-43.33654 22.5188,-61.16183 11.11186,-11.77916 32.67898,-24.65213 49.63673,-29.62714 44.70619,-13.11577 94.22082,-4.27555 132.5,23.65622 15.44047,11.26669 32.453,30.85135 42.74605,49.20886 10.38845,18.52763 18.25395,49.12106 18.25395,71 0,16.19083 -5.00359,40.84854 -11.47256,56.53682 -19.74783,47.89164 -62.53284,82.22052 -113.29167,90.90044 -11.56854,1.97825 -29.61068,2.64386 -40.6636,1.50015 z M 459.80204,484.72185 c -0.0183,-2.43468 -6.21678,-12.02879 -10.60952,-16.42153 -13.8435,-13.8435 -35.35513,-12.09621 -35.74844,2.90369 -0.0909,3.46611 0.4128,4.46807 3.65502,7.27075 5.74495,4.96612 10.91418,6.0245 22.54151,4.61529 9.56802,-1.15963 14.7816,-0.56247 17.62081,2.01828 1.36726,1.24279 2.55149,1.06264 2.54062,-0.38648 z"
         id="path3913"
         inkscape:connector-curvature="0"
         sodipodi:nodetypes="sscsssscsscssccscsscscssscssssssscccsssssssscsssssssssscscsscc" />
    </g>
  </g>
</svg>
