<?xml version="1.0" encoding="utf-8"?>
<!-- Generator: Adobe Illustrator 24.2.3, SVG Export Plug-In . SVG Version: 6.00 Build 0)  -->
<svg version="1.1" id="Layer_1" xmlns="http://www.w3.org/2000/svg" xmlns:xlink="http://www.w3.org/1999/xlink" x="0px" y="0px"
	 viewBox="0 0 36 36" style="enable-background:new 0 0 36 36;" xml:space="preserve">
<style type="text/css">
	.st0{fill:none;}
	.st1{fill:#0076BF;}
</style>
<path class="st0" d="M0,0h36v36H0V0z"/>
<path class="st1" d="M18,16.3c-0.9,0-1.7,0.7-1.7,1.7s0.7,1.7,1.7,1.7c0.9,0,1.7-0.7,1.7-1.7S18.9,16.3,18,16.3z M18,3
	C9.7,3,3,9.7,3,18s6.7,15,15,15s15-6.7,15-15S26.3,3,18,3z M21.3,21.3L9,27l5.7-12.3L27,9L21.3,21.3z"/>
</svg>
