<?xml version="1.0" encoding="UTF-8" standalone="no"?>
<!-- Svg Vector Icons : http://www.onlinewebfonts.com/icon -->

<svg
   xmlns:dc="http://purl.org/dc/elements/1.1/"
   xmlns:cc="http://creativecommons.org/ns#"
   xmlns:rdf="http://www.w3.org/1999/02/22-rdf-syntax-ns#"
   xmlns:svg="http://www.w3.org/2000/svg"
   xmlns="http://www.w3.org/2000/svg"
   xmlns:sodipodi="http://sodipodi.sourceforge.net/DTD/sodipodi-0.dtd"
   xmlns:inkscape="http://www.inkscape.org/namespaces/inkscape"
   version="1.1"
   x="0px"
   y="0px"
   viewBox="0 0 1000 1000"
   enable-background="new 0 0 1000 1000"
   xml:space="preserve"
   id="svg30"
   sodipodi:docname="houdini.svg"
   inkscape:version="0.92.5 (2060ec1f9f, 2020-04-08)"><defs
   id="defs34" /><sodipodi:namedview
   pagecolor="#ffffff"
   bordercolor="#666666"
   borderopacity="1"
   objecttolerance="10"
   gridtolerance="10"
   guidetolerance="10"
   inkscape:pageopacity="0"
   inkscape:pageshadow="2"
   inkscape:window-width="1920"
   inkscape:window-height="1027"
   id="namedview32"
   showgrid="false"
   inkscape:zoom="0.86"
   inkscape:cx="122.09302"
   inkscape:cy="500"
   inkscape:window-x="-8"
   inkscape:window-y="-8"
   inkscape:window-maximized="1"
   inkscape:current-layer="svg30" />
<metadata
   id="metadata23"> Svg Vector Icons : http://www.onlinewebfonts.com/icon <rdf:RDF><cc:Work
     rdf:about=""><dc:format>image/svg+xml</dc:format><dc:type
       rdf:resource="http://purl.org/dc/dcmitype/StillImage" /></cc:Work></rdf:RDF></metadata>
<g
   id="g28"
   style="fill:#f26722;fill-opacity:1"><g
     id="_x32_069a460dcf28295e231f3111e041a3f"
     style="fill:#f26722;fill-opacity:1"><path
       d="M656.6,547.4C636.1,448.8,534.8,332,422.9,306.5c-116.4-26.3-194.3-27-285.7,34.4c-26.8,18-71.9,48.8-114,94.8v153C82.5,460,217.8,352.3,369.3,391.2c257.3,65.9,216.1,247.2,185.2,320.7C499,844.2,295,901.3,232.2,774.9c-68.2-137.4,84-159.9,84-159.9s-39.6,38.5,10.1,89.2c34.4,35.4,99.9,3.3,122.6-58.8c20-54.2-23-129.3-117.1-137.4c-78.8-6.9-197,52.9-209.1,173.1c-11.4,113.8,39.5,161,113.4,211.3c73.7,50.3,231.4,69.1,321.4-19.1C655.4,777.5,684.1,679.1,656.6,547.4z M23.2,10v300.1c45-39.8,82.4-59.7,84-60.6c164.1-95.2,308.7-48,393.7-21.1c134.3,42.4,239.9,148.1,285.5,256.8c53.1,126.5,7.2,368.2-172,490.3c-7.8,5.3-15.7,9.9-23.5,14.5h386V10H23.2z M23.2,829.2v115.7c6,4.9,11.9,9.2,17.6,12.7c-5.3-2.2-11.3-5.1-17.6-8.5v41H191c-12.4-6.7-23.8-13.6-33.8-20.4C108,935.9,55.4,888.3,23.2,829.2z"
       id="path25"
       style="fill:#f26722;fill-opacity:1" /></g></g>
</svg>