<?xml version="1.0" encoding="UTF-8"?>
<svg xmlns="http://www.w3.org/2000/svg" xmlns:xlink="http://www.w3.org/1999/xlink" width="50pt" height="50pt" viewBox="0 0 50 50" version="1.1">
<g id="surface150059">
<path style=" stroke:none;fill-rule:nonzero;fill:rgb(100%,100%,100%);fill-opacity:1;" d="M 25 2 C 12.308594 2 2 12.308594 2 25 C 2 37.691406 12.308594 48 25 48 C 37.691406 48 48 37.691406 48 25 C 48 12.308594 37.691406 2 25 2 Z M 25 4 C 36.609375 4 46 13.390625 46 25 C 46 36.609375 36.609375 46 25 46 C 13.390625 46 4 36.609375 4 25 C 4 13.390625 13.390625 4 25 4 Z M 31.003906 7.023438 C 30.617188 6.976562 30.222656 7.074219 29.882812 7.296875 C 29.433594 7.597656 29.144531 8.097656 29.113281 8.636719 L 28.804688 14 L 25.601562 14 C 25.398438 14 25.207031 13.921875 25.058594 13.777344 L 19.347656 8.125 C 18.757812 7.539062 17.859375 7.375 17.113281 7.71875 C 12.191406 9.96875 8.453125 14.222656 6.855469 19.394531 C 6.667969 20.003906 6.78125 20.675781 7.160156 21.191406 C 7.542969 21.703125 8.128906 22 8.769531 22 L 21.757812 22 C 22.035156 22 22.296875 22.117188 22.488281 22.316406 L 27 27.144531 L 27 41.503906 C 27 42.117188 27.277344 42.6875 27.761719 43.070312 C 28.121094 43.351562 28.558594 43.503906 29.007812 43.503906 C 29.167969 43.503906 29.332031 43.480469 29.492188 43.445312 C 34.722656 42.175781 39.183594 38.71875 41.734375 33.960938 C 42.207031 33.082031 42.054688 31.988281 41.359375 31.242188 L 36.265625 25.769531 C 36.09375 25.585938 36 25.34375 36 25.089844 L 36 22 L 41.335938 22 C 41.949219 22 42.511719 21.71875 42.875 21.222656 C 43.242188 20.730469 43.355469 20.089844 43.175781 19.5 C 41.441406 13.757812 37.035156 9.128906 31.390625 7.113281 C 31.265625 7.066406 31.136719 7.035156 31.003906 7.023438 Z M 28.054688 17.511719 C 29.023438 17.597656 30.152344 18.179688 31.074219 19.15625 C 32.546875 20.71875 32.917969 22.691406 31.90625 23.5625 C 30.890625 24.433594 28.875 23.875 27.402344 22.316406 C 25.929688 20.757812 25.558594 18.785156 26.574219 17.914062 C 26.953125 17.585938 27.472656 17.460938 28.054688 17.511719 Z M 28.054688 17.511719 "/>
</g>
</svg>
