<?xml version="1.0" standalone="no"?>
<!DOCTYPE svg PUBLIC "-//W3C//DTD SVG 20010904//EN"
 "http://www.w3.org/TR/2001/REC-SVG-20010904/DTD/svg10.dtd">
<svg version="1.0" xmlns="http://www.w3.org/2000/svg"
 width="96.000000pt" height="48.000000pt" viewBox="0 0 96.000000 48.000000"
 preserveAspectRatio="xMidYMid meet">
<metadata>
Created by potrace 1.15, written by Peter Selinger 2001-2017
</metadata>
<g transform="translate(0.000000,48.000000) scale(0.100000,-0.100000)"
fill="#D3322B" stroke="none">
<path d="M155 454 c-50 -27 -104 -85 -121 -131 -38 -98 6 -219 100 -277 42
-27 58 -30 120 -30 107 0 175 41 263 158 99 131 144 166 212 166 75 0 136 -83
112 -153 -16 -45 -59 -86 -97 -93 -53 -10 -130 14 -171 52 -20 19 -39 32 -42
29 -13 -13 46 -101 86 -129 35 -24 52 -29 100 -29 129 0 223 96 223 225 -1 69
-27 125 -79 170 -51 44 -114 63 -185 55 -92 -9 -153 -53 -241 -172 -104 -140
-157 -172 -233 -143 -44 16 -82 69 -82 112 0 17 9 45 20 63 50 83 175 84 251
2 16 -18 32 -29 35 -26 11 11 -47 107 -82 133 -46 35 -141 44 -189 18z"/>
</g>
</svg>
